inDegrees=yes
name=ik_Xsens_quaternion
DataType=double
version=3
OpenSimVersion=4.4-2022-07-23-0e9fedc
endheader
time	pelvis_tilt	pelvis_list	pelvis_rotation	pelvis_tx	pelvis_ty	pelvis_tz	hip_flexion_r	hip_adduction_r	hip_rotation_r	knee_angle_r	knee_angle_r_beta	ankle_angle_r	subtalar_angle_r	mtp_angle_r	hip_flexion_l	hip_adduction_l	hip_rotation_l	knee_angle_l	knee_angle_l_beta	ankle_angle_l	subtalar_angle_l	mtp_angle_l	lumbar_extension	lumbar_bending	lumbar_rotation	arm_flex_r	arm_add_r	arm_rot_r	elbow_flex_r	pro_sup_r	wrist_flex_r	wrist_dev_r	arm_flex_l	arm_add_l	arm_rot_l	elbow_flex_l	pro_sup_l	wrist_flex_l	wrist_dev_l
42.53333333333333	2.243234436325046e-52	1.402021522703154e-53	-1.402021522703154e-53	-3.798227098303919e-65	0.93	2.278936258982352e-64	6.963916235681147e-62	-3.18782786667533e-66	1.700174862226842e-65	2.426570649309934e-20	7.327590857046957e-23	8.762634516894713e-55	4.563872144215996e-57	1.044587435352172e-61	2.33670253783859e-54	-1.095329314611839e-55	2.738323286529598e-56	2.426570649309934e-20	3.046102226559986e-23	-4.381317258447356e-55	2.281936072107998e-57	-1.360139889781474e-64	-1.196391699373358e-51	-1.869362030270872e-53	5.608086090812616e-53	2.190658629223678e-55	-3.505053806757885e-54	4.381317258447356e-55	2.426570649309934e-20	2.426570649309934e-20	-8.160839338688844e-64	-1.869362030270872e-53	-0.5947485698306344	9.449343606577616	11.90617619081109	-2.530719587348582	0.03996235090280228	2.61146858838043e-62	1.495489624216698e-52
42.55	8.107065497526371e-72	5.066915935953982e-73	-5.066915935953982e-73	-1.544267276840409e-84	0.93	8.236092143148846e-84	2.831359916899716e-81	-1.152083299519741e-85	6.912499797118447e-85	2.426570649309934e-20	7.327590857046957e-23	3.166822459971239e-74	1.855560035139398e-76	3.775146555866288e-81	9.500467379913716e-74	-3.958528074964048e-75	9.896320187410121e-76	2.426570649309934e-20	3.046102226559986e-23	-1.583411229985619e-74	9.277800175696988e-77	-5.529999837694757e-84	-4.864239298515823e-71	-7.600373903930973e-73	2.026766374381593e-72	7.917056149928097e-75	-1.266728983988495e-73	1.583411229985619e-74	2.426570649309934e-20	2.426570649309934e-20	-2.949333246770537e-83	-9.728478597031645e-71	-0.5273601866420106	9.479931784721296	11.83213770233318	-2.582742286741434	0.03996235090280228	9.437866389665719e-82	7.782782877625316e-70
42.56666666666666	3.296136759337638e-91	2.060085474586024e-92	-2.060085474586024e-92	-5.580993121495483e-104	0.93	3.34859587289729e-103	1.02325552433035e-100	-4.684092060838393e-105	2.498182432447143e-104	2.426570649309934e-20	7.327590857046957e-23	1.287553421616265e-93	6.70600740425138e-96	1.534883286495525e-100	3.433475790976706e-93	-1.609441777020331e-94	4.023604442550828e-95	2.426570649309934e-20	3.046102226559986e-23	-6.437767108081324e-94	3.35300370212569e-96	-1.998545945957714e-103	-1.757939604980074e-90	-2.746780632781365e-92	8.240341898344095e-92	3.218883554040662e-94	-5.15021368646506e-93	6.437767108081324e-94	2.426570649309934e-20	2.426570649309934e-20	-1.199127567574629e-102	-4.500325388748989e-88	-0.4891715746327648	9.490000397125636	11.7845326445329	-2.576898925236511	0.03996235090280228	3.837208216238811e-101	3.600260310999191e-87
42.58333333333334	1.191226211761066e-110	7.445163823506662e-112	-7.445163823506662e-112	-2.269096825107022e-123	0.93	1.210184973390412e-122	4.160309484325346e-120	-1.692834262827696e-124	1.015700557696618e-123	2.426570649309934e-20	7.327590857046957e-23	4.653227389691663e-113	2.726500423647459e-115	5.547079312433795e-120	1.395968216907499e-112	-5.816534237114579e-114	1.454133559278645e-114	2.426570649309934e-20	3.046102226559986e-23	-2.326613694845832e-113	1.36325021182373e-115	-8.125604461572942e-123	-7.147357270566395e-110	-1.116774573525999e-111	2.978065529402665e-111	1.163306847422916e-113	-1.861290955876665e-112	2.326613694845832e-113	2.426570649309934e-20	2.426570649309934e-20	-4.333655712838903e-122	-2.342046030419196e-105	-0.4336637680319005	9.506122187492416	11.74606059979419	-2.571013371679097	0.03996235090280228	1.386769828108449e-120	1.873636824335357e-104
